<?xml version="1.0" encoding="UTF-8" ?>
<!DOCTYPE svg PUBLIC "-//W3C//DTD SVG 1.1//EN" "http://www.w3.org/Graphics/SVG/1.1/DTD/svg11.dtd">
<svg width="500pt" height="239pt" viewBox="0 0 500 239" version="1.1" xmlns="http://www.w3.org/2000/svg">
<path fill="#2e9dcb" d=" M 95.74 45.57 C 104.96 43.13 114.56 44.84 123.96 44.30 C 140.44 43.37 156.75 50.45 168.29 62.07 C 168.26 56.95 168.27 51.84 168.28 46.72 C 185.86 46.96 203.44 46.04 221.01 46.73 C 236.55 47.12 252.61 45.08 267.56 50.44 C 281.50 54.82 293.24 65.07 299.88 78.03 C 308.66 94.55 309.95 113.84 308.62 132.18 C 318.65 104.43 329.06 76.82 339.17 49.10 C 339.65 46.34 342.92 46.79 344.99 46.70 C 358.29 46.91 371.60 46.38 384.88 47.03 C 400.59 90.61 416.65 134.06 432.45 177.61 C 434.33 182.88 436.59 188.03 437.85 193.50 C 422.12 193.47 406.38 193.69 390.65 193.26 C 388.72 186.31 386.77 179.35 384.46 172.51 C 369.12 172.63 353.77 172.22 338.44 172.78 C 336.16 179.67 334.17 186.65 331.79 193.52 C 316.57 193.42 301.33 193.77 286.11 193.22 C 288.72 185.21 291.98 177.45 294.83 169.53 C 288.82 176.11 281.87 182.00 273.76 185.81 C 262.61 190.96 250.28 193.10 238.06 193.50 C 214.89 193.60 191.72 193.34 168.56 193.72 C 168.32 189.82 168.21 185.92 168.28 182.01 C 151.52 194.08 130.26 198.01 109.97 196.71 C 95.67 195.93 81.27 191.85 69.54 183.46 C 57.24 174.43 50.01 158.95 51.27 143.69 C 66.23 144.15 81.20 144.12 96.16 143.70 C 96.96 149.08 97.53 155.24 101.96 159.00 C 108.26 164.39 117.19 164.53 125.01 163.64 C 130.69 162.83 137.05 159.29 137.84 153.06 C 139.04 148.42 135.51 144.14 131.38 142.56 C 113.66 135.02 94.09 132.81 76.77 124.22 C 67.97 119.68 60.09 112.03 57.84 102.10 C 55.08 89.67 57.02 75.95 64.34 65.38 C 71.65 54.91 83.53 48.51 95.74 45.57 Z" />
<path fill="#ffffff" d=" M 101.30 62.03 C 107.53 60.28 114.15 62.22 119.55 65.46 C 129.11 70.96 134.68 81.20 144.07 86.93 C 150.72 91.00 158.90 91.87 166.51 90.76 C 189.60 87.63 211.40 76.83 235.04 77.50 C 247.53 77.48 260.25 81.88 269.17 90.81 C 275.83 97.39 279.78 106.60 280.03 115.96 C 280.50 130.29 273.49 144.47 262.27 153.30 C 250.32 162.82 234.21 167.13 219.13 164.43 C 204.38 162.19 190.58 154.50 181.02 143.03 C 172.74 133.51 167.79 121.72 160.63 111.42 C 155.96 104.47 147.20 101.02 139.02 101.55 C 127.89 102.50 119.93 111.92 109.12 113.89 C 102.59 115.23 95.76 112.50 91.08 107.95 C 82.24 99.55 80.52 85.12 86.49 74.61 C 89.77 68.90 94.96 64.06 101.30 62.03 Z" />
<path fill="#ffffff" d=" M 361.50 95.47 C 364.83 94.31 367.44 97.46 368.97 99.97 C 373.89 108.71 378.63 117.68 381.33 127.39 C 382.02 130.17 382.87 133.06 382.37 135.95 C 381.88 138.90 379.21 140.90 376.48 141.66 C 368.82 143.97 360.71 143.06 352.85 142.84 C 348.77 142.55 343.92 140.34 343.03 135.97 C 343.23 127.12 348.42 119.56 351.56 111.56 C 354.18 105.89 356.36 99.36 361.50 95.47 Z" />
</svg>
